<?xml version="1.0" standalone="no"?>
<!DOCTYPE svg PUBLIC "-//W3C//DTD SVG 20010904//EN"
 "http://www.w3.org/TR/2001/REC-SVG-20010904/DTD/svg10.dtd">
<svg version="1.0" xmlns="http://www.w3.org/2000/svg"
 width="256.000000pt" height="256.000000pt" viewBox="0 0 256.000000 256.000000"
 preserveAspectRatio="xMidYMid meet">
<metadata>
Created by potrace 1.16, written by Peter Selinger 2001-2019
</metadata>
<g transform="translate(0.000000,256.000000) scale(0.100000,-0.100000)"
fill="#00bfd8" stroke="none">
<path d="M1045 2390 c-503 -106 -867 -532 -892 -1045 -15 -322 87 -605 304
-835 166 -177 373 -290 612 -337 113 -21 309 -21 424 1 443 84 800 434 893
876 23 106 25 343 5 445 -78 392 -346 711 -717 850 -175 66 -439 85 -629 45z
m433 -96 c421 -86 749 -427 817 -849 42 -255 -15 -508 -164 -735 -82 -126
-250 -274 -388 -344 -329 -166 -722 -143 -1030 60 -89 59 -229 199 -290 291
-238 358 -227 830 28 1174 70 95 201 215 298 273 92 56 223 107 326 129 96 21
305 21 403 1z"/>
<path d="M1750 1810 c-14 -6 -179 -165 -367 -353 l-343 -342 -117 117 c-65 63
-128 121 -140 127 -39 20 -126 14 -164 -12 -62 -41 -89 -141 -55 -205 8 -15
101 -113 208 -218 211 -210 223 -217 310 -194 38 10 92 60 450 418 225 224
415 422 424 441 32 67 7 155 -57 203 -29 22 -114 32 -149 18z m94 -111 c14
-11 26 -30 26 -42 0 -16 -119 -141 -409 -431 -363 -362 -411 -407 -432 -401
-13 4 -104 86 -201 184 -185 184 -198 203 -161 243 36 39 60 25 208 -122 81
-80 150 -140 160 -140 12 0 164 144 385 365 201 201 373 365 382 365 8 0 27
-9 42 -21z"/>
<path d="M2148 1100 c-9 -6 -24 -36 -33 -67 -40 -136 -132 -281 -248 -389 -85
-79 -169 -132 -279 -174 -80 -31 -221 -60 -292 -60 -49 0 -66 -13 -66 -52 0
-46 32 -54 154 -40 330 36 614 230 760 517 73 144 94 244 57 265 -24 12 -31
12 -53 0z"/>
</g>
</svg>
