<?xml version="1.0" standalone="no"?>
<!DOCTYPE svg PUBLIC "-//W3C//DTD SVG 20010904//EN"
 "http://www.w3.org/TR/2001/REC-SVG-20010904/DTD/svg10.dtd">
<svg version="1.0" xmlns="http://www.w3.org/2000/svg"
 width="160.000000pt" height="160.000000pt" viewBox="0 0 160.000000 160.000000"
 preserveAspectRatio="xMidYMid meet">
<metadata>
Created by potrace 1.16, written by Peter Selinger 2001-2019
</metadata>
<g transform="translate(0.000000,160.000000) scale(0.100000,-0.100000)"
fill="#00bfd8" stroke="none">
<path d="M765 1430 l-120 -120 -53 53 -53 52 -115 -117 c-91 -93 -121 -131
-144 -182 -63 -139 -61 -280 8 -417 l38 -76 -37 -41 c-21 -22 -43 -59 -49 -83
-14 -52 -8 -135 13 -175 9 -16 70 -83 136 -149 l121 -119 45 44 45 44 -114
116 c-63 63 -119 126 -124 141 -14 37 -4 73 29 105 l28 27 61 -32 c152 -81
338 -75 484 17 48 30 236 210 236 226 0 7 -23 34 -50 61 l-50 49 125 126 125
125 -58 58 c-32 31 -62 57 -67 57 -6 0 -64 -54 -130 -120 l-120 -120 -102 102
-103 103 125 125 125 125 -58 58 c-32 31 -62 57 -67 57 -6 0 -64 -54 -130
-120z m-105 -480 c-16 -40 -30 -77 -30 -81 0 -5 35 -9 77 -9 l78 0 -110 -110
c-60 -60 -110 -108 -112 -106 -2 1 10 36 27 76 16 40 30 74 30 76 0 2 -37 4
-82 4 l-83 0 115 115 c63 63 115 113 117 111 2 -1 -10 -36 -27 -76z"/>
</g>
</svg>
