<?xml version="1.0" standalone="no"?>
<!DOCTYPE svg PUBLIC "-//W3C//DTD SVG 20010904//EN"
 "http://www.w3.org/TR/2001/REC-SVG-20010904/DTD/svg10.dtd">
<svg version="1.0" xmlns="http://www.w3.org/2000/svg"
 width="160.000000pt" height="160.000000pt" viewBox="0 0 160.000000 160.000000"
 preserveAspectRatio="xMidYMid meet">
<metadata>
Created by potrace 1.16, written by Peter Selinger 2001-2019
</metadata>
<g transform="translate(0.000000,160.000000) scale(0.100000,-0.100000)"
fill="#00bfd8" stroke="none">
<path d="M893 1535 c-54 -16 -129 -64 -169 -107 -88 -94 -106 -171 -91 -401 7
-106 7 -177 1 -194 -6 -18 -86 -87 -239 -207 -241 -190 -268 -219 -281 -303
-14 -94 47 -200 138 -238 48 -19 128 -19 176 0 24 11 128 106 299 277 l261
261 139 32 c76 18 137 35 136 39 -1 4 -79 101 -172 216 -94 115 -171 211 -171
213 0 3 81 74 180 158 99 85 180 158 180 162 0 18 -68 69 -118 87 -63 24 -202
26 -269 5z m52 -671 l37 -45 -28 -31 c-16 -16 -41 -39 -56 -49 l-27 -20 -40
43 -41 43 57 52 c32 29 59 53 59 53 1 0 18 -21 39 -46z m-556 -510 c27 -34 27
-72 -1 -101 -38 -41 -105 -28 -127 26 -10 24 -10 34 3 59 18 34 28 40 73 41
23 1 37 -6 52 -25z"/>
<path d="M1283 1124 c-73 -64 -133 -120 -133 -124 0 -13 191 -245 204 -248 17
-4 79 66 108 120 20 37 23 57 23 153 0 94 -3 117 -24 163 -13 28 -29 52 -35
52 -6 0 -71 -53 -143 -116z"/>
</g>
</svg>
