<?xml version="1.0" standalone="no"?>
<!DOCTYPE svg PUBLIC "-//W3C//DTD SVG 20010904//EN"
 "http://www.w3.org/TR/2001/REC-SVG-20010904/DTD/svg10.dtd">
<svg version="1.0" xmlns="http://www.w3.org/2000/svg"
 width="1968.000000pt" height="2007.000000pt" viewBox="0 0 1968.000000 2007.000000"
 preserveAspectRatio="xMidYMid meet">
<metadata>
Created by potrace 1.16, written by Peter Selinger 2001-2019
</metadata>
<g transform="translate(0.000000,2007.000000) scale(0.100000,-0.100000)"
fill="#00bfd8" stroke="none">
<path d="M10235 20051 c-38 -16 -54 -47 -81 -153 -15 -59 -35 -121 -45 -138
-37 -61 -153 -89 -222 -54 -18 10 -64 47 -102 85 -98 94 -134 106 -213 68 -81
-40 -98 -101 -62 -217 24 -76 26 -181 5 -221 -20 -40 -69 -79 -113 -90 -40
-11 -63 -7 -180 29 -86 26 -127 22 -165 -18 -31 -32 -57 -91 -57 -129 0 -36
20 -64 102 -141 75 -72 98 -112 98 -171 0 -55 -20 -101 -59 -134 -29 -24 -135
-64 -217 -81 -69 -15 -103 -85 -83 -174 5 -28 19 -58 30 -68 11 -10 69 -30
130 -46 61 -15 124 -37 140 -49 41 -29 69 -88 69 -147 0 -60 -22 -96 -122
-200 -70 -72 -70 -73 -66 -120 6 -58 48 -125 90 -143 26 -11 42 -9 117 11 104
29 192 36 232 20 41 -17 86 -72 100 -122 10 -37 8 -57 -15 -148 -14 -58 -26
-117 -26 -131 0 -68 127 -145 195 -119 15 6 66 48 113 94 117 112 164 125 262
76 44 -23 72 -72 100 -180 27 -100 44 -134 77 -149 34 -16 129 -14 162 4 32
16 42 38 71 154 12 47 28 97 35 112 22 41 69 76 123 89 77 18 118 2 208 -81
81 -76 123 -99 178 -99 46 0 102 48 117 101 11 35 9 48 -14 118 -51 149 -28
255 66 300 56 27 96 26 213 -4 53 -14 107 -22 120 -19 22 6 64 47 89 87 9 15
30 12 220 -27 1612 -336 3059 -1121 4235 -2296 1229 -1229 2060 -2814 2329
-4440 12 -69 23 -140 26 -157 l6 -33 -619 0 -618 0 -28 123 c-173 757 -481
1526 -869 2172 -762 1269 -1976 2314 -3372 2902 -1098 462 -2451 643 -3650
487 -1333 -173 -2591 -717 -3630 -1569 -336 -275 -713 -653 -990 -990 -1277
-1556 -1831 -3551 -1545 -5555 268 -1877 1264 -3552 2794 -4704 918 -690 2024
-1155 3166 -1330 404 -62 659 -80 1105 -80 540 0 920 36 1420 135 2111 417
3927 1787 4936 3724 243 468 477 1093 577 1542 l10 43 -1102 1 c-827 0 -1109
3 -1133 12 -37 14 3 -26 -2708 2686 -1067 1068 -1942 1941 -1945 1941 -3 0
-851 -846 -1885 -1881 -1105 -1105 -1896 -1889 -1920 -1902 l-40 -22 -890 -3
-890 -2 1652 1652 c2420 2423 3915 3926 3936 3959 11 16 22 29 26 29 4 0 1172
-1168 2596 -2595 1423 -1428 2602 -2604 2619 -2613 29 -16 135 -17 1557 -13
886 2 1528 0 1531 -5 12 -23 -43 -533 -88 -819 -247 -1551 -926 -2997 -1973
-4205 -166 -192 -507 -537 -706 -715 -1241 -1113 -2725 -1822 -4325 -2069
-467 -72 -823 -99 -1320 -100 -480 0 -772 20 -1225 85 -1378 197 -2710 750
-3833 1594 -341 255 -595 478 -923 805 -309 309 -519 551 -772 889 -768 1026
-1279 2173 -1526 3421 -86 437 -122 758 -153 1354 -24 476 -22 518 31 631 37
80 76 125 206 236 269 232 397 506 398 854 2 333 -106 592 -353 848 -118 123
-163 152 -223 144 -89 -12 -122 -70 -109 -195 4 -42 5 -198 2 -347 -5 -296
-11 -323 -70 -365 -81 -58 -454 -102 -600 -71 -99 21 -180 93 -216 192 -35 98
-44 185 -51 469 -6 279 -7 285 -29 307 -17 17 -34 23 -69 23 -58 0 -91 -17
-187 -97 -189 -157 -315 -357 -385 -612 -25 -89 -27 -110 -27 -296 0 -189 2
-205 27 -290 59 -195 155 -347 302 -479 152 -136 245 -278 286 -433 26 -100
35 -284 20 -433 -13 -141 -32 -517 -33 -660 -1 -257 106 -928 222 -1400 428
-1733 1268 -3230 2512 -4480 630 -633 1305 -1151 2061 -1581 1143 -651 2508
-1079 3802 -1194 598 -52 953 -64 1271 -42 120 9 264 19 319 22 855 52 1819
261 2665 577 1505 563 2821 1478 3883 2702 1196 1378 1979 3092 2231 4881 80
570 117 1339 86 1789 -5 77 -14 218 -20 311 -91 1435 -559 2907 -1337 4204
-400 667 -845 1234 -1418 1806 -1262 1264 -2739 2099 -4478 2536 -240 60 -574
128 -789 160 -87 13 -158 28 -158 33 0 5 27 35 60 65 33 31 69 70 80 86 55 83
-15 225 -110 225 -20 0 -69 -11 -108 -25 -95 -33 -185 -34 -232 -2 -75 50 -90
129 -51 271 37 135 25 178 -64 221 -84 41 -108 33 -214 -75 -105 -106 -139
-121 -226 -96 -87 26 -118 74 -155 240 -14 65 -25 83 -60 101 -31 16 -122 19
-155 6z m-235 -10741 l0 -430 -425 0 -425 0 0 430 0 430 425 0 425 0 0 -430z
m1360 5 l0 -425 -425 0 -425 0 0 425 0 425 425 0 425 0 0 -425z m0 -1435 l0
-430 -419 0 c-307 0 -422 3 -427 12 -10 15 -10 820 0 836 5 9 104 12 427 12
l419 0 0 -430z m-1360 -5 l0 -425 -422 2 -423 3 -5 220 c-3 121 -3 311 -1 423
l4 202 423 0 424 0 0 -425z"/>
</g>
</svg>
