<?xml version="1.0" standalone="no"?>
<!DOCTYPE svg PUBLIC "-//W3C//DTD SVG 20010904//EN"
 "http://www.w3.org/TR/2001/REC-SVG-20010904/DTD/svg10.dtd">
<svg version="1.0" xmlns="http://www.w3.org/2000/svg"
 width="160.000000pt" height="160.000000pt" viewBox="0 0 160.000000 160.000000"
 preserveAspectRatio="xMidYMid meet">
<metadata>
Created by potrace 1.16, written by Peter Selinger 2001-2019
</metadata>
<g transform="translate(0.000000,160.000000) scale(0.100000,-0.100000)"
fill="#393939" stroke="none">
<path d="M685 1543 c-11 -3 -25 -9 -30 -14 -6 -4 -30 -11 -53 -15 -23 -3 -39
-10 -36 -15 3 -5 -2 -9 -10 -9 -9 0 -16 -4 -16 -10 0 -5 -5 -10 -10 -10 -12 0
-24 -9 -83 -65 -54 -53 -77 -94 -77 -140 l0 -38 48 7 c26 4 54 7 62 7 38 0
110 -14 110 -22 0 -5 7 -9 15 -9 8 0 15 -4 15 -10 0 -5 6 -10 13 -10 8 0 30
-18 51 -40 20 -22 31 -40 25 -40 -7 0 -26 15 -43 33 -35 38 -88 67 -122 67
-13 0 -26 5 -29 10 -3 6 -19 10 -35 10 -16 0 -32 -4 -35 -10 -3 -5 -17 -10
-30 -10 -13 0 -38 -8 -56 -17 -42 -23 -109 -89 -109 -108 0 -8 -4 -15 -9 -15
-18 0 -38 -137 -22 -153 6 -6 11 -19 11 -29 0 -10 8 -31 17 -46 24 -36 89
-102 101 -102 6 0 12 -6 14 -12 4 -10 36 -13 118 -13 82 0 114 3 117 13 3 6
11 12 19 12 8 0 14 3 14 8 0 4 13 16 30 27 16 11 35 32 41 47 6 16 15 28 20
28 5 0 9 11 9 25 0 14 5 25 10 25 18 0 11 106 -10 154 -10 25 -15 46 -10 46 6
0 10 -7 10 -15 0 -8 5 -15 10 -15 6 0 10 -11 10 -25 0 -14 5 -25 10 -25 12 0
13 -93 2 -118 -18 -35 -32 -63 -44 -82 -10 -15 -10 -25 -2 -38 9 -13 28 -18
93 -20 l81 -3 0 41 c0 22 -4 40 -8 40 -26 0 -46 180 -22 204 5 5 10 18 10 28
0 10 5 18 10 18 6 0 10 5 10 10 0 20 68 90 87 90 7 0 13 5 13 10 0 6 7 10 15
10 8 0 15 4 15 9 0 9 81 24 120 21 80 -6 93 -4 103 11 13 21 3 59 -23 86 -11
12 -20 25 -20 29 0 3 -13 18 -30 34 -16 15 -26 30 -23 34 3 3 0 6 -8 6 -8 0
-26 11 -41 25 -15 14 -32 25 -38 25 -5 0 -10 4 -10 9 0 5 -17 12 -37 16 -21 4
-44 12 -52 18 -14 12 -240 20 -276 10z"/>
<path d="M1095 1220 c-3 -5 -16 -10 -29 -10 -46 0 -156 -75 -156 -107 0 -7 -4
-13 -10 -13 -5 0 -10 -9 -10 -20 0 -11 -4 -20 -10 -20 -6 0 -10 -35 -10 -85 0
-50 4 -85 10 -85 6 0 10 -6 10 -14 0 -18 32 -76 42 -76 4 0 18 -11 32 -25 14
-14 30 -25 36 -25 5 0 10 -4 10 -9 0 -8 89 -26 115 -24 93 10 124 16 120 24
-4 5 1 9 10 9 9 0 23 7 31 15 8 8 23 20 33 27 11 8 31 34 45 60 22 40 26 59
26 127 0 53 -4 81 -11 81 -6 0 -9 6 -6 14 7 18 -78 110 -110 120 -13 4 -23 12
-23 17 0 5 -15 9 -34 9 -19 0 -38 5 -41 10 -3 6 -19 10 -35 10 -16 0 -32 -4
-35 -10z"/>
<path d="M726 731 c-3 -5 -26 -12 -51 -15 -25 -4 -45 -11 -45 -17 0 -5 -5 -9
-10 -9 -6 0 -22 -10 -35 -22 -13 -13 -30 -28 -37 -35 -23 -21 -38 -42 -38 -52
0 -5 -3 -11 -7 -13 -5 -1 -18 -23 -30 -46 -19 -36 -23 -60 -23 -138 0 -56 4
-94 10 -94 6 0 10 -9 10 -20 0 -11 5 -20 10 -20 6 0 10 -7 10 -15 0 -8 4 -15
9 -15 5 0 12 -8 15 -18 9 -27 69 -85 112 -107 22 -11 42 -24 46 -30 11 -15
260 -13 265 3 3 6 13 12 24 12 10 0 19 4 19 9 0 5 10 13 22 17 26 8 100 79 91
88 -4 3 -2 6 3 6 6 0 16 16 24 35 8 19 17 35 22 35 4 0 8 16 8 35 0 19 5 35
10 35 6 0 10 10 10 22 0 17 3 19 12 10 7 -7 25 -12 40 -12 28 0 28 0 28 -68 0
-76 14 -115 48 -133 12 -7 22 -16 22 -21 0 -4 36 -8 80 -8 75 0 82 2 110 29
l30 28 0 206 0 206 -26 26 c-26 26 -31 27 -119 23 -95 -3 -125 -16 -125 -53 0
-9 -4 -13 -10 -10 -6 4 -10 -23 -10 -74 l0 -81 -34 0 c-19 0 -37 -6 -39 -12
-3 -7 -6 -3 -6 10 -1 13 -5 20 -11 17 -6 -4 -10 8 -10 29 0 20 -4 36 -10 36
-5 0 -10 8 -10 19 0 15 -30 62 -68 106 -20 22 -63 55 -73 55 -5 0 -8 4 -4 9 3
6 -15 13 -40 17 -25 3 -48 10 -51 15 -3 5 -41 9 -84 9 -43 0 -81 -4 -84 -9z"/>
<path d="M105 640 c-11 -5 -16 -9 -11 -9 6 -1 1 -7 -10 -15 -17 -13 -19 -30
-22 -213 -3 -196 -3 -199 20 -226 13 -15 29 -27 36 -27 7 0 12 -4 12 -10 0 -6
33 -10 80 -10 44 0 80 3 80 8 0 4 14 16 30 27 29 19 30 23 30 95 0 41 4 80 8
87 4 6 23 13 42 15 31 3 35 6 35 33 0 22 -5 31 -20 33 -68 10 -65 6 -65 88 0
72 -2 77 -31 105 -29 27 -36 29 -113 28 -44 0 -90 -4 -101 -9z"/>
</g>
</svg>
