<?xml version="1.0" standalone="no"?>
<!DOCTYPE svg PUBLIC "-//W3C//DTD SVG 20010904//EN"
 "http://www.w3.org/TR/2001/REC-SVG-20010904/DTD/svg10.dtd">
<svg version="1.0" xmlns="http://www.w3.org/2000/svg"
 width="900.000000pt" height="715.000000pt" viewBox="0 0 900.000000 715.000000"
 preserveAspectRatio="xMidYMid meet">
<metadata>
Created by potrace 1.16, written by Peter Selinger 2001-2019
</metadata>
<g transform="translate(0.000000,715.000000) scale(0.100000,-0.100000)"
fill="#00bfd8" stroke="none">
<path d="M3450 7104 c-156 -67 -196 -279 -75 -399 72 -72 91 -75 517 -75 l368
0 0 -234 c0 -268 12 -240 -105 -251 -392 -38 -872 -204 -1220 -424 l-110 -69
-275 273 c-306 304 -320 314 -433 315 -150 0 -247 -97 -247 -249 0 -28 7 -68
15 -89 11 -24 106 -127 281 -302 l264 -265 -75 -80 c-442 -466 -717 -1049
-790 -1671 -17 -148 -20 -503 -5 -639 56 -498 229 -960 508 -1359 142 -202
379 -456 572 -610 148 -118 348 -244 535 -336 310 -153 552 -229 905 -285 160
-26 586 -32 764 -11 480 56 934 219 1321 478 172 114 274 197 429 348 494 481
788 1084 866 1775 15 136 12 491 -5 639 -73 627 -338 1188 -785 1664 l-81 86
265 266 c175 175 270 278 281 302 8 21 15 61 15 89 0 152 -97 249 -247 249
-113 -1 -127 -11 -433 -315 l-275 -273 -110 69 c-348 220 -828 386 -1220 424
-117 11 -105 -17 -105 251 l0 234 368 0 c295 0 378 3 418 15 177 53 229 281
92 412 -69 67 -2 63 -1130 63 -891 -1 -1028 -3 -1058 -16z m1342 -1449 c600
-70 1159 -356 1551 -793 320 -356 514 -753 599 -1229 31 -174 33 -576 5 -748
-72 -430 -248 -823 -520 -1160 -94 -116 -305 -318 -432 -412 -365 -272 -805
-440 -1265 -484 -151 -14 -432 -6 -580 16 -408 62 -798 224 -1125 468 -127 94
-338 296 -432 412 -219 272 -386 600 -468 920 -60 235 -70 322 -70 605 1 285
14 395 80 634 259 944 1089 1651 2082 1771 149 18 423 18 575 0z"/>
<path d="M4382 4578 c-52 -25 -105 -85 -120 -137 -9 -27 -12 -214 -12 -645 0
-669 -2 -647 63 -714 18 -19 50 -43 72 -55 l40 -22 885 0 885 0 41 22 c52 28
108 90 124 138 7 21 10 67 8 105 -3 57 -9 77 -34 112 -40 57 -98 96 -163 108
-33 6 -321 10 -737 10 l-683 0 -3 463 c-3 452 -3 463 -25 502 -28 52 -78 100
-125 119 -55 23 -163 20 -216 -6z"/>
</g>
</svg>
