<?xml version="1.0" standalone="no"?>
<!DOCTYPE svg PUBLIC "-//W3C//DTD SVG 20010904//EN"
 "http://www.w3.org/TR/2001/REC-SVG-20010904/DTD/svg10.dtd">
<svg version="1.0" xmlns="http://www.w3.org/2000/svg"
 width="920.000000pt" height="512.000000pt" viewBox="0 0 920.000000 512.000000"
 preserveAspectRatio="xMidYMid meet">
<metadata>
Created by potrace 1.16, written by Peter Selinger 2001-2019
</metadata>
<g transform="translate(0.000000,512.000000) scale(0.100000,-0.100000)"
fill="#393939" stroke="none">
<path d="M4386 4735 c-270 -56 -506 -208 -676 -436 -191 -256 -254 -605 -169
-936 29 -114 116 -283 197 -383 162 -201 363 -331 609 -392 127 -32 379 -32
506 0 246 61 447 191 609 392 301 372 313 936 28 1319 -68 91 -193 212 -280
271 -87 59 -229 124 -330 150 -110 29 -386 37 -494 15z"/>
<path d="M3298 2696 c-175 -61 -328 -187 -442 -363 -108 -168 -196 -446 -242
-768 -26 -178 -26 -595 -1 -685 68 -242 237 -411 482 -482 l80 -23 1425 0
c1603 0 1466 -6 1640 77 69 33 101 57 171 127 104 105 150 192 181 338 18 88
20 122 14 323 -9 375 -67 672 -183 945 -109 256 -347 474 -577 529 -25 6 -28
5 -21 -11 37 -94 48 -175 52 -390 3 -123 8 -223 12 -223 15 0 142 -109 185
-160 55 -64 129 -208 152 -295 9 -38 17 -128 21 -244 l6 -185 33 -43 c82 -108
63 -269 -43 -363 -110 -97 -270 -90 -375 15 -49 49 -71 98 -76 168 -6 76 12
137 55 187 l35 40 -4 173 c-3 165 -4 174 -31 230 -76 153 -243 240 -400 208
-33 -7 -79 -22 -100 -33 -59 -29 -135 -110 -165 -176 -26 -54 -27 -67 -30
-231 -4 -172 -4 -173 21 -200 48 -51 62 -90 62 -176 0 -95 -19 -139 -88 -202
-109 -100 -266 -95 -373 11 -101 102 -112 248 -25 356 l29 36 5 189 c7 262 33
352 147 507 121 165 347 288 528 288 l54 0 -4 168 c-3 156 -5 171 -30 225 -15
31 -29 57 -31 57 -2 0 -47 -29 -100 -64 -234 -157 -463 -226 -746 -226 -301 0
-557 82 -788 252 -29 21 -55 38 -58 38 -3 0 -18 -26 -33 -57 l-27 -58 -2 -365
-3 -365 63 -29 c42 -20 85 -52 132 -100 113 -114 165 -236 165 -386 0 -149
-47 -265 -152 -375 -171 -180 -422 -224 -648 -113 -88 43 -194 151 -239 241
-132 272 -21 606 246 737 l63 31 0 324 c0 336 8 436 41 532 10 31 19 58 19 60
0 6 -14 2 -82 -21z"/>
<path d="M3425 1444 c-45 -23 -66 -45 -86 -89 -23 -49 -24 -94 -4 -142 30 -72
93 -113 170 -113 53 0 89 16 126 57 39 42 51 71 51 123 0 68 -40 133 -104 166
-36 19 -116 18 -153 -2z"/>
</g>
</svg>
