<?xml version="1.0" standalone="no"?>
<!DOCTYPE svg PUBLIC "-//W3C//DTD SVG 20010904//EN"
 "http://www.w3.org/TR/2001/REC-SVG-20010904/DTD/svg10.dtd">
<svg version="1.0" xmlns="http://www.w3.org/2000/svg"
 width="250.000000pt" height="250.000000pt" viewBox="0 0 250.000000 250.000000"
 preserveAspectRatio="xMidYMid meet">
<metadata>
Created by potrace 1.16, written by Peter Selinger 2001-2019
</metadata>
<g transform="translate(0.000000,250.000000) scale(0.100000,-0.100000)"
fill="#00bfd8" stroke="none">
<path d="M600 2383 c-136 -13 -240 -44 -240 -70 0 -8 18 -35 39 -60 42 -47 71
-116 71 -170 l0 -33 99 0 c75 0 101 4 111 15 9 11 34 15 95 15 l82 0 13 -42
c18 -61 43 -107 85 -155 56 -66 87 -57 41 12 -30 44 -56 153 -56 237 0 35 -5
69 -11 75 -8 8 -3 13 20 18 l31 7 0 79 0 79 -172 -2 c-95 0 -189 -3 -208 -5z"/>
<path d="M990 2306 l0 -74 48 5 c73 7 72 6 72 72 0 67 -5 71 -76 71 l-44 0 0
-74z"/>
<path d="M1648 2100 c-29 -18 -29 -61 1 -205 46 -224 46 -232 -3 -111 -70 170
-110 216 -164 187 -44 -24 -37 -82 32 -236 39 -88 80 -224 92 -300 l7 -49 -58
62 c-64 69 -111 91 -157 73 -43 -16 -39 -71 12 -150 44 -68 201 -236 256 -273
53 -36 85 -128 164 -481 20 -92 23 -98 43 -93 333 84 457 122 457 139 0 10
-38 133 -85 273 -84 253 -127 420 -141 544 -4 36 -8 148 -8 250 -2 194 -9 233
-48 246 -42 13 -64 -38 -76 -171 l-7 -80 -27 124 c-15 69 -40 150 -55 180 -25
49 -32 56 -58 56 -45 0 -54 -47 -31 -173 28 -149 28 -165 0 -67 -54 194 -66
227 -84 245 -22 22 -37 24 -62 10z"/>
<path d="M460 1930 l0 -110 150 0 150 0 0 110 0 110 -150 0 -150 0 0 -110z"/>
<path d="M431 1728 c-34 -105 -110 -445 -131 -588 -34 -235 -43 -380 -37 -588
6 -217 18 -284 67 -382 l30 -60 309 0 309 0 25 43 c55 93 70 160 75 332 9 343
-33 470 -188 571 -37 24 -71 51 -75 61 -21 53 -24 80 -13 145 10 54 10 73 0
88 -15 24 -14 55 2 100 12 31 11 40 -5 72 -17 33 -17 40 -4 72 21 50 19 124
-5 164 l-20 32 -159 0 -159 0 -21 -62z"/>
<path d="M1142 1748 c-35 -35 -4 -107 100 -234 l72 -89 -49 40 c-28 21 -88 71
-135 111 -95 80 -118 94 -152 94 -31 0 -48 -18 -48 -49 0 -20 30 -56 132 -156
133 -130 141 -141 38 -54 -103 87 -141 109 -181 109 -29 0 -39 -5 -44 -20 -12
-38 39 -103 180 -228 l70 -62 -70 31 c-45 20 -88 32 -120 33 -49 1 -50 0 -53
-30 -4 -43 38 -78 180 -151 243 -124 372 -228 672 -546 98 -103 182 -187 186
-187 10 0 181 182 176 188 -2 2 -56 -10 -118 -27 -63 -17 -122 -31 -130 -31
-12 0 -20 21 -33 78 -38 178 -94 390 -114 439 -17 38 -41 67 -96 114 -83 71
-181 178 -233 257 -26 38 -36 64 -36 95 -1 38 2 43 31 56 l31 14 -61 80 c-34
43 -77 92 -95 108 -34 30 -79 38 -100 17z"/>
</g>
</svg>
